<?xml version="1.0" standalone="no"?>
<!DOCTYPE svg PUBLIC "-//W3C//DTD SVG 20010904//EN"
 "http://www.w3.org/TR/2001/REC-SVG-20010904/DTD/svg10.dtd">
<svg version="1.0" xmlns="http://www.w3.org/2000/svg"
 width="729.000000pt" height="140.000000pt" viewBox="0 0 729.000000 140.000000"
 preserveAspectRatio="xMidYMid meet">

<g transform="translate(0.000000,140.000000) scale(0.100000,-0.100000)"
fill="#ffffff" stroke="none">
<path d="M4615 1175 c-53 -19 -77 -49 -73 -93 5 -53 42 -76 132 -80 104 -6
165 28 166 91 1 74 -122 118 -225 82z"/>
<path d="M890 1085 l0 -85 35 0 35 0 0 -215 0 -215 -35 0 -35 0 0 -85 0 -85
210 0 210 0 0 85 0 85 -35 0 -35 0 0 88 c0 85 1 89 25 100 36 17 81 15 99 -4
13 -13 16 -44 16 -185 l0 -169 175 0 175 0 0 85 0 85 -34 0 -34 0 -4 123 c-3
102 -7 129 -26 164 -52 100 -217 120 -350 42 -18 -10 -35 -19 -38 -19 -2 0 -4
65 -4 145 l0 145 -175 0 -175 0 0 -85z"/>
<path d="M2670 1081 l0 -90 28 -3 27 -3 0 -200 0 -200 -27 -3 -28 -3 0 -90 0
-89 200 0 200 0 0 89 c0 85 -1 90 -22 93 -21 3 -23 9 -26 66 l-3 62 91 0 90 0
0 -65 c0 -63 -1 -65 -25 -65 -25 0 -25 -1 -25 -90 l0 -90 205 0 205 0 0 89 0
90 -27 3 -28 3 -3 203 -2 202 30 0 30 0 0 90 0 90 -205 0 -205 0 0 -90 c0 -89
0 -90 25 -90 24 0 25 -3 25 -60 l0 -60 -90 0 -91 0 3 58 c3 50 6 57 26 60 21
3 22 8 22 93 l0 89 -200 0 -200 0 0 -89z"/>
<path d="M4970 1010 l0 -160 70 0 69 0 3 68 3 67 43 3 42 3 0 -205 0 -206 -30
0 -30 0 0 -90 0 -90 215 0 215 0 0 89 0 90 -32 3 -33 3 -3 203 -2 202 45 0 45
0 0 -70 0 -70 75 0 75 0 0 160 0 160 -385 0 -385 0 0 -160z"/>
<path d="M6763 1085 l-133 -64 0 -40 c0 -40 -1 -41 -35 -41 l-35 0 0 -85 0
-85 35 0 35 0 0 -123 c0 -108 3 -128 23 -167 43 -87 174 -118 307 -73 l55 18
3 83 3 82 -41 -6 c-61 -10 -70 3 -70 102 l0 84 55 0 55 0 0 85 0 85 -55 0 -55
0 0 105 c0 58 -3 105 -7 105 -5 0 -68 -29 -140 -65z"/>
<path d="M357 939 c-80 -19 -163 -83 -199 -152 -44 -87 -30 -214 32 -289 113
-136 437 -151 568 -25 32 31 62 76 62 95 0 5 -37 16 -82 26 -46 10 -93 20
-104 22 -17 4 -23 0 -28 -20 -16 -65 -103 -90 -151 -42 -60 61 -51 197 16 231
54 28 117 8 141 -45 l13 -30 87 0 88 0 0 115 0 115 -85 0 c-71 0 -85 -3 -85
-16 0 -12 -5 -14 -17 -9 -76 33 -179 42 -256 24z"/>
<path d="M2047 940 c-102 -26 -197 -108 -222 -193 -19 -63 -19 -90 0 -153 32
-110 142 -186 290 -202 265 -29 449 85 449 278 0 111 -54 188 -173 243 -61 29
-76 31 -186 34 -66 1 -137 -2 -158 -7z m211 -176 c18 -21 22 -37 22 -94 0 -83
-22 -117 -82 -127 -32 -5 -41 -1 -68 25 -27 28 -30 36 -30 94 1 35 7 74 14 87
31 55 102 63 144 15z"/>
<path d="M3894 939 c-100 -24 -201 -115 -225 -202 -24 -91 10 -201 83 -263
103 -86 315 -113 467 -59 117 41 195 143 194 255 0 76 -26 132 -85 185 -74 66
-139 88 -278 91 -63 2 -133 -2 -156 -7z m180 -149 c35 -13 56 -59 56 -122 0
-96 -58 -148 -130 -118 -75 31 -73 209 3 240 29 12 41 12 71 0z"/>
<path d="M5965 936 c-107 -35 -190 -107 -213 -184 -54 -181 73 -337 293 -361
296 -34 499 137 433 363 -18 59 -99 137 -173 166 -49 19 -83 24 -180 27 -80 2
-133 -2 -160 -11z m189 -147 c50 -23 72 -122 42 -193 -29 -69 -124 -73 -159
-6 -24 46 -19 140 9 171 33 37 68 46 108 28z"/>
<path d="M4507 933 c-4 -3 -7 -42 -7 -85 l0 -78 30 0 30 0 0 -99 0 -100 -27
-3 c-28 -3 -28 -4 -31 -85 l-3 -83 196 0 195 0 0 85 c0 84 0 85 -25 85 l-25 0
0 185 0 185 -163 0 c-90 0 -167 -3 -170 -7z"/>
</g>
</svg>
